#N canvas 229 156 656 463 10;
#X obj 31 230 sendOSC;
#X msg 31 42 connect localhost 32000;
#X msg 44 68 disconnect;
#X obj 342 149 dumpOSC 12000;
#X obj 342 180 OSCroute /slice /state;
#X msg 81 123 [ \, send /zeo/connect \, ];
#X msg 82 167 [ \, send /zeo/disconnect \, ];
#X text 79 99 REGISTER with broadcaster as client to receive data;
#X floatatom 406 223 5 0 0 0 - - -;
#X obj 342 287 unpack f f f f f f f;
#X floatatom 76 348 5 0 0 0 - - -;
#X floatatom 161 348 5 0 0 0 - - -;
#X floatatom 245 348 5 0 0 0 - - -;
#X floatatom 323 348 5 0 0 0 - - -;
#X floatatom 401 348 5 0 0 0 - - -;
#X floatatom 479 348 5 0 0 0 - - -;
#X floatatom 551 348 5 0 0 0 - - -;
#X text 73 371 Delta 2-4 Hz;
#X text 159 371 Theta 4-8;
#X text 242 371 Alpha 8-13;
#X text 476 371 Beta3 11-14;
#X text 548 371 Gamma 30-50;
#X text 400 371 Beta2 18-21;
#X text 321 371 Beta1 13-18;
#X text 450 203 sleep state: 1 - awake 2 - REM 3 - Light Sleep 4 -
Deep Sleep;
#X connect 1 0 0 0;
#X connect 2 0 0 0;
#X connect 3 0 4 0;
#X connect 4 0 9 0;
#X connect 4 1 8 0;
#X connect 5 0 0 0;
#X connect 6 0 0 0;
#X connect 9 0 10 0;
#X connect 9 1 11 0;
#X connect 9 2 12 0;
#X connect 9 3 13 0;
#X connect 9 4 14 0;
#X connect 9 5 15 0;
#X connect 9 6 16 0;
